<svg width="332" height="89" viewBox="0 0 332 89" fill="none" xmlns="http://www.w3.org/2000/svg">
<rect x="0.5" y="1.43311" width="331" height="87" rx="43.5" stroke="black"/>
<path d="M124.455 51.9456C124.295 51.3925 124.072 50.9039 123.784 50.4796C123.496 50.0478 123.144 49.6842 122.727 49.3887C122.318 49.0857 121.848 48.8546 121.318 48.6956C120.795 48.5365 120.216 48.4569 119.58 48.4569C118.39 48.4569 117.345 48.7524 116.443 49.3433C115.549 49.9342 114.852 50.794 114.352 51.9228C113.852 53.044 113.602 54.4153 113.602 56.0365C113.602 57.6577 113.848 59.0365 114.341 60.1728C114.833 61.3092 115.53 62.1766 116.432 62.7751C117.333 63.366 118.398 63.6615 119.625 63.6615C120.739 63.6615 121.689 63.4645 122.477 63.0706C123.273 62.669 123.879 62.1046 124.295 61.3774C124.72 60.6501 124.932 59.7903 124.932 58.7978L125.932 58.9456H119.932V55.241H129.67V58.1728C129.67 60.2183 129.239 61.9759 128.375 63.4456C127.511 64.9077 126.322 66.0365 124.807 66.8319C123.292 67.6198 121.557 68.0137 119.602 68.0137C117.42 68.0137 115.504 67.5327 113.852 66.5706C112.201 65.6009 110.913 64.2259 109.989 62.4456C109.072 60.6577 108.614 58.5365 108.614 56.0819C108.614 54.1956 108.886 52.5137 109.432 51.0365C109.985 49.5516 110.758 48.294 111.75 47.2637C112.742 46.2334 113.898 45.4493 115.216 44.9115C116.534 44.3736 117.962 44.1046 119.5 44.1046C120.818 44.1046 122.045 44.2978 123.182 44.6842C124.318 45.063 125.326 45.6009 126.205 46.2978C127.091 46.9948 127.814 47.8243 128.375 48.7865C128.936 49.741 129.295 50.794 129.455 51.9456H124.455ZM141.262 68.0365C139.497 68.0365 137.97 67.6615 136.682 66.9115C135.402 66.1539 134.413 65.1009 133.716 63.7524C133.02 62.3963 132.671 60.8243 132.671 59.0365C132.671 57.2334 133.02 55.6577 133.716 54.3092C134.413 52.9531 135.402 51.9001 136.682 51.1501C137.97 50.3925 139.497 50.0137 141.262 50.0137C143.027 50.0137 144.55 50.3925 145.83 51.1501C147.118 51.9001 148.11 52.9531 148.807 54.3092C149.504 55.6577 149.853 57.2334 149.853 59.0365C149.853 60.8243 149.504 62.3963 148.807 63.7524C148.11 65.1009 147.118 66.1539 145.83 66.9115C144.55 67.6615 143.027 68.0365 141.262 68.0365ZM141.285 64.2865C142.088 64.2865 142.758 64.0592 143.296 63.6046C143.834 63.1425 144.239 62.5137 144.512 61.7183C144.792 60.9228 144.932 60.0175 144.932 59.0024C144.932 57.9872 144.792 57.0819 144.512 56.2865C144.239 55.491 143.834 54.8622 143.296 54.4001C142.758 53.938 142.088 53.7069 141.285 53.7069C140.474 53.7069 139.792 53.938 139.239 54.4001C138.694 54.8622 138.281 55.491 138.001 56.2865C137.728 57.0819 137.591 57.9872 137.591 59.0024C137.591 60.0175 137.728 60.9228 138.001 61.7183C138.281 62.5137 138.694 63.1425 139.239 63.6046C139.792 64.0592 140.474 64.2865 141.285 64.2865ZM160.987 68.0365C159.222 68.0365 157.695 67.6615 156.407 66.9115C155.127 66.1539 154.138 65.1009 153.441 63.7524C152.745 62.3963 152.396 60.8243 152.396 59.0365C152.396 57.2334 152.745 55.6577 153.441 54.3092C154.138 52.9531 155.127 51.9001 156.407 51.1501C157.695 50.3925 159.222 50.0137 160.987 50.0137C162.752 50.0137 164.275 50.3925 165.555 51.1501C166.843 51.9001 167.835 52.9531 168.532 54.3092C169.229 55.6577 169.578 57.2334 169.578 59.0365C169.578 60.8243 169.229 62.3963 168.532 63.7524C167.835 65.1009 166.843 66.1539 165.555 66.9115C164.275 67.6615 162.752 68.0365 160.987 68.0365ZM161.01 64.2865C161.813 64.2865 162.483 64.0592 163.021 63.6046C163.559 63.1425 163.964 62.5137 164.237 61.7183C164.517 60.9228 164.657 60.0175 164.657 59.0024C164.657 57.9872 164.517 57.0819 164.237 56.2865C163.964 55.491 163.559 54.8622 163.021 54.4001C162.483 53.938 161.813 53.7069 161.01 53.7069C160.199 53.7069 159.517 53.938 158.964 54.4001C158.419 54.8622 158.006 55.491 157.726 56.2865C157.453 57.0819 157.316 57.9872 157.316 59.0024C157.316 60.0175 157.453 60.9228 157.726 61.7183C158.006 62.5137 158.419 63.1425 158.964 63.6046C159.517 64.0592 160.199 64.2865 161.01 64.2865ZM180.689 74.6046C179.121 74.6046 177.776 74.3887 176.655 73.9569C175.541 73.5327 174.655 72.9531 173.996 72.2183C173.337 71.4834 172.909 70.6577 172.712 69.741L177.189 69.1387C177.326 69.4872 177.541 69.813 177.837 70.116C178.132 70.419 178.523 70.6615 179.007 70.8433C179.5 71.0327 180.098 71.1274 180.803 71.1274C181.856 71.1274 182.723 70.8698 183.405 70.3546C184.095 69.8471 184.439 68.9948 184.439 67.7978V64.6046H184.235C184.023 65.0895 183.704 65.5478 183.28 65.9796C182.856 66.4115 182.31 66.7637 181.644 67.0365C180.977 67.3092 180.182 67.4456 179.257 67.4456C177.947 67.4456 176.754 67.1425 175.678 66.5365C174.61 65.9228 173.757 64.9872 173.121 63.7296C172.492 62.4645 172.178 60.866 172.178 58.9342C172.178 56.9569 172.5 55.3054 173.144 53.9796C173.788 52.6539 174.644 51.6615 175.712 51.0024C176.788 50.3433 177.966 50.0137 179.246 50.0137C180.223 50.0137 181.041 50.1804 181.701 50.5137C182.36 50.8395 182.89 51.2486 183.291 51.741C183.701 52.2259 184.015 52.7031 184.235 53.1728H184.416V50.241H189.223V67.866C189.223 69.3509 188.86 70.5933 188.132 71.5933C187.405 72.5933 186.398 73.3433 185.11 73.8433C183.829 74.3509 182.356 74.6046 180.689 74.6046ZM180.791 63.8092C181.572 63.8092 182.231 63.616 182.769 63.2296C183.314 62.8357 183.731 62.2751 184.019 61.5478C184.314 60.813 184.462 59.9342 184.462 58.9115C184.462 57.8887 184.318 57.0024 184.03 56.2524C183.742 55.4948 183.326 54.9077 182.78 54.491C182.235 54.0743 181.572 53.866 180.791 53.866C179.996 53.866 179.326 54.0819 178.78 54.5137C178.235 54.938 177.822 55.5289 177.541 56.2865C177.261 57.044 177.121 57.919 177.121 58.9115C177.121 59.919 177.261 60.7903 177.541 61.5251C177.829 62.2524 178.242 62.8168 178.78 63.2183C179.326 63.6122 179.996 63.8092 180.791 63.8092ZM198.016 44.4228V67.6956H193.176V44.4228H198.016ZM209.949 68.0365C208.153 68.0365 206.608 67.6728 205.312 66.9456C204.025 66.2107 203.032 65.1728 202.335 63.8319C201.638 62.4834 201.29 60.8887 201.29 59.0478C201.29 57.2524 201.638 55.6766 202.335 54.3206C203.032 52.9645 204.013 51.9077 205.278 51.1501C206.551 50.3925 208.044 50.0137 209.756 50.0137C210.907 50.0137 211.979 50.1993 212.972 50.5706C213.972 50.9342 214.843 51.4834 215.585 52.2183C216.335 52.9531 216.919 53.8774 217.335 54.991C217.752 56.0971 217.96 57.3925 217.96 58.8774V60.2069H203.222V57.2069H213.403C213.403 56.51 213.252 55.8925 212.949 55.3546C212.646 54.8168 212.225 54.3963 211.688 54.0933C211.157 53.7827 210.54 53.6274 209.835 53.6274C209.1 53.6274 208.449 53.7978 207.881 54.1387C207.32 54.4721 206.881 54.9228 206.562 55.491C206.244 56.0516 206.081 56.6766 206.074 57.366V60.2183C206.074 61.0819 206.233 61.8281 206.551 62.4569C206.877 63.0857 207.335 63.5706 207.926 63.9115C208.517 64.2524 209.218 64.4228 210.028 64.4228C210.566 64.4228 211.059 64.3471 211.506 64.1956C211.953 64.044 212.335 63.8168 212.653 63.5137C212.972 63.2107 213.214 62.8395 213.381 62.4001L217.858 62.6956C217.631 63.7713 217.165 64.7107 216.46 65.5137C215.763 66.3092 214.862 66.9304 213.756 67.3774C212.657 67.8168 211.388 68.0365 209.949 68.0365ZM228.816 67.6956V44.4228H237.998C239.763 44.4228 241.267 44.76 242.51 45.4342C243.752 46.1009 244.699 47.0289 245.351 48.2183C246.01 49.4001 246.339 50.7637 246.339 52.3092C246.339 53.8546 246.006 55.2183 245.339 56.4001C244.673 57.5819 243.707 58.5024 242.441 59.1615C241.184 59.8206 239.661 60.1501 237.873 60.1501H232.021V56.2069H237.078C238.025 56.2069 238.805 56.044 239.419 55.7183C240.04 55.385 240.502 54.9266 240.805 54.3433C241.116 53.7524 241.271 53.0743 241.271 52.3092C241.271 51.5365 241.116 50.8622 240.805 50.2865C240.502 49.7031 240.04 49.2524 239.419 48.9342C238.798 48.6084 238.01 48.4456 237.055 48.4456H233.737V67.6956H228.816ZM254.385 44.4228V67.6956H249.544V44.4228H254.385ZM263.34 68.0251C262.227 68.0251 261.234 67.8319 260.363 67.4456C259.492 67.0516 258.802 66.4721 258.295 65.7069C257.795 64.9342 257.545 63.9721 257.545 62.8206C257.545 61.8509 257.723 61.0365 258.079 60.3774C258.435 59.7183 258.92 59.188 259.534 58.7865C260.147 58.385 260.844 58.0819 261.624 57.8774C262.412 57.6728 263.238 57.5289 264.102 57.4456C265.117 57.3395 265.935 57.241 266.556 57.1501C267.177 57.0516 267.628 56.9077 267.909 56.7183C268.189 56.5289 268.329 56.2486 268.329 55.8774V55.8092C268.329 55.0895 268.102 54.5327 267.647 54.1387C267.2 53.7448 266.564 53.5478 265.738 53.5478C264.867 53.5478 264.174 53.741 263.659 54.1274C263.143 54.5062 262.802 54.9834 262.636 55.5592L258.159 55.1956C258.386 54.135 258.833 53.2183 259.499 52.4456C260.166 51.6653 261.026 51.0668 262.079 50.6501C263.14 50.2259 264.367 50.0137 265.761 50.0137C266.73 50.0137 267.659 50.1274 268.545 50.3546C269.439 50.5819 270.23 50.9342 270.92 51.4115C271.617 51.8887 272.166 52.5024 272.568 53.2524C272.969 53.9948 273.17 54.885 273.17 55.9228V67.6956H268.579V65.2751H268.443C268.162 65.8206 267.787 66.3016 267.318 66.7183C266.848 67.1274 266.284 67.4493 265.624 67.6842C264.965 67.9115 264.204 68.0251 263.34 68.0251ZM264.727 64.6842C265.439 64.6842 266.068 64.544 266.613 64.2637C267.159 63.9759 267.587 63.5895 267.897 63.1046C268.208 62.6198 268.363 62.0706 268.363 61.4569V59.6046C268.212 59.7031 268.003 59.794 267.738 59.8774C267.48 59.9531 267.189 60.0251 266.863 60.0933C266.537 60.1539 266.212 60.2107 265.886 60.2637C265.56 60.3092 265.265 60.3509 264.999 60.3887C264.431 60.4721 263.935 60.6046 263.511 60.7865C263.087 60.9683 262.757 61.2145 262.522 61.5251C262.287 61.8281 262.17 62.2069 262.17 62.6615C262.17 63.3206 262.409 63.8243 262.886 64.1728C263.371 64.5137 263.984 64.6842 264.727 64.6842ZM279.389 74.241C278.776 74.241 278.2 74.1918 277.662 74.0933C277.132 74.0024 276.692 73.885 276.344 73.741L277.435 70.1274C278.003 70.3016 278.514 70.3963 278.969 70.4115C279.431 70.4266 279.829 70.3206 280.162 70.0933C280.503 69.866 280.779 69.4796 280.991 68.9342L281.276 68.1956L275.014 50.241H280.105L283.719 63.0592H283.901L287.548 50.241H292.673L285.889 69.5819C285.563 70.5213 285.12 71.3395 284.56 72.0365C284.007 72.741 283.306 73.2827 282.457 73.6615C281.609 74.0478 280.586 74.241 279.389 74.241Z" fill="black"/>
<path d="M109.972 31.8091H107.441L112.05 18.7182H114.977L119.592 31.8091H117.061L113.565 21.4028H113.462L109.972 31.8091ZM110.055 26.6763H116.959V28.5811H110.055V26.6763ZM123.528 26.0562V31.8091H121.214V21.9909H123.426V23.6592H123.541C123.767 23.1095 124.127 22.6727 124.621 22.3489C125.12 22.025 125.736 21.8631 126.469 21.8631C127.146 21.8631 127.736 22.0079 128.239 22.2977C128.746 22.5875 129.138 23.0072 129.415 23.557C129.697 24.1067 129.835 24.7736 129.831 25.5577V31.8091H127.517V25.9156C127.517 25.2594 127.346 24.7459 127.006 24.3751C126.669 24.0044 126.202 23.819 125.606 23.819C125.201 23.819 124.841 23.9085 124.525 24.0875C124.214 24.2622 123.969 24.5158 123.79 24.8481C123.616 25.1805 123.528 25.5832 123.528 26.0562ZM135.827 31.9817C135.055 31.9817 134.365 31.7835 133.756 31.3872C133.146 30.9909 132.665 30.4156 132.311 29.6614C131.957 28.9071 131.78 27.9909 131.78 26.9128C131.78 25.8219 131.959 24.9014 132.317 24.1514C132.68 23.3972 133.167 22.8283 133.781 22.4447C134.395 22.057 135.079 21.8631 135.833 21.8631C136.408 21.8631 136.881 21.9611 137.252 22.1571C137.623 22.3489 137.917 22.5811 138.134 22.8538C138.351 23.1223 138.52 23.3758 138.639 23.6145H138.735V18.7182H141.055V31.8091H138.78V30.2622H138.639C138.52 30.5008 138.347 30.7544 138.121 31.0229C137.895 31.2871 137.597 31.5129 137.226 31.7004C136.856 31.8879 136.389 31.9817 135.827 31.9817ZM136.472 30.0832C136.962 30.0832 137.38 29.9511 137.725 29.6869C138.07 29.4185 138.332 29.0456 138.511 28.5683C138.69 28.091 138.78 27.5349 138.78 26.9C138.78 26.265 138.69 25.7132 138.511 25.2445C138.336 24.7757 138.077 24.4114 137.731 24.1514C137.39 23.8915 136.971 23.7615 136.472 23.7615C135.956 23.7615 135.526 23.8957 135.181 24.1642C134.836 24.4327 134.576 24.8034 134.401 25.2764C134.226 25.7494 134.139 26.2906 134.139 26.9C134.139 27.5136 134.226 28.0612 134.401 28.5427C134.58 29.02 134.842 29.3972 135.187 29.6741C135.537 29.9469 135.965 30.0832 136.472 30.0832ZM143.521 31.8091V21.9909H145.765V23.6273H145.867C146.046 23.0605 146.353 22.6237 146.787 22.3169C147.226 22.0058 147.727 21.8503 148.289 21.8503C148.417 21.8503 148.56 21.8567 148.718 21.8695C148.88 21.878 149.014 21.8929 149.12 21.9142V24.0427C149.022 24.0087 148.867 23.9788 148.654 23.9533C148.445 23.9234 148.243 23.9085 148.047 23.9085C147.625 23.9085 147.245 24.0001 146.909 24.1834C146.576 24.3623 146.314 24.6116 146.123 24.9312C145.931 25.2508 145.835 25.6195 145.835 26.0371V31.8091H143.521ZM150.658 31.8091V21.9909H152.972V31.8091H150.658ZM151.821 20.5974C151.455 20.5974 151.139 20.476 150.875 20.2331C150.611 19.9859 150.479 19.6898 150.479 19.3446C150.479 18.9952 150.611 18.699 150.875 18.4561C151.139 18.2089 151.455 18.0854 151.821 18.0854C152.192 18.0854 152.507 18.2089 152.767 18.4561C153.031 18.699 153.163 18.9952 153.163 19.3446C153.163 19.6898 153.031 19.9859 152.767 20.2331C152.507 20.476 152.192 20.5974 151.821 20.5974ZM159.634 32.0008C158.675 32.0008 157.844 31.7899 157.141 31.368C156.438 30.9462 155.892 30.356 155.504 29.5974C155.121 28.8389 154.929 27.9525 154.929 26.9383C154.929 25.9241 155.121 25.0356 155.504 24.2729C155.892 23.5101 156.438 22.9177 157.141 22.4959C157.844 22.074 158.675 21.8631 159.634 21.8631C160.593 21.8631 161.423 22.074 162.127 22.4959C162.83 22.9177 163.373 23.5101 163.757 24.2729C164.144 25.0356 164.338 25.9241 164.338 26.9383C164.338 27.9525 164.144 28.8389 163.757 29.5974C163.373 30.356 162.83 30.9462 162.127 31.368C161.423 31.7899 160.593 32.0008 159.634 32.0008ZM159.646 30.1472C160.166 30.1472 160.601 30.0044 160.95 29.7189C161.3 29.4291 161.56 29.0413 161.73 28.5555C161.905 28.0697 161.992 27.5285 161.992 26.932C161.992 26.3311 161.905 25.7878 161.73 25.302C161.56 24.8119 161.3 24.422 160.95 24.1322C160.601 23.8425 160.166 23.6976 159.646 23.6976C159.114 23.6976 158.671 23.8425 158.317 24.1322C157.968 24.422 157.705 24.8119 157.531 25.302C157.36 25.7878 157.275 26.3311 157.275 26.932C157.275 27.5285 157.36 28.0697 157.531 28.5555C157.705 29.0413 157.968 29.4291 158.317 29.7189C158.671 30.0044 159.114 30.1472 159.646 30.1472ZM169.946 31.9817C169.174 31.9817 168.484 31.7835 167.875 31.3872C167.265 30.9909 166.784 30.4156 166.43 29.6614C166.076 28.9071 165.9 27.9909 165.9 26.9128C165.9 25.8219 166.078 24.9014 166.436 24.1514C166.799 23.3972 167.287 22.8283 167.9 22.4447C168.514 22.057 169.198 21.8631 169.952 21.8631C170.527 21.8631 171 21.9611 171.371 22.1571C171.742 22.3489 172.036 22.5811 172.253 22.8538C172.471 23.1223 172.639 23.3758 172.758 23.6145H172.854V18.7182H175.174V31.8091H172.899V30.2622H172.758C172.639 30.5008 172.466 30.7544 172.24 31.0229C172.015 31.2871 171.716 31.5129 171.346 31.7004C170.975 31.8879 170.508 31.9817 169.946 31.9817ZM170.591 30.0832C171.081 30.0832 171.499 29.9511 171.844 29.6869C172.189 29.4185 172.451 29.0456 172.63 28.5683C172.809 28.091 172.899 27.5349 172.899 26.9C172.899 26.265 172.809 25.7132 172.63 25.2445C172.456 24.7757 172.196 24.4114 171.85 24.1514C171.51 23.8915 171.09 23.7615 170.591 23.7615C170.076 23.7615 169.645 23.8957 169.3 24.1642C168.955 24.4327 168.695 24.8034 168.52 25.2764C168.346 25.7494 168.258 26.2906 168.258 26.9C168.258 27.5136 168.346 28.0612 168.52 28.5427C168.699 29.02 168.961 29.3972 169.306 29.6741C169.656 29.9469 170.084 30.0832 170.591 30.0832ZM183.888 31.8091H181.357L185.966 18.7182H188.893L193.508 31.8091H190.977L187.481 21.4028H187.378L183.888 31.8091ZM183.971 26.6763H190.875V28.5811H183.971V26.6763ZM195.13 35.4909V21.9909H197.406V23.6145H197.54C197.659 23.3758 197.828 23.1223 198.045 22.8538C198.262 22.5811 198.556 22.3489 198.927 22.1571C199.298 21.9611 199.771 21.8631 200.346 21.8631C201.105 21.8631 201.789 22.057 202.398 22.4447C203.012 22.8283 203.498 23.3972 203.855 24.1514C204.218 24.9014 204.399 25.8219 204.399 26.9128C204.399 27.9909 204.222 28.9071 203.868 29.6614C203.515 30.4156 203.033 30.9909 202.424 31.3872C201.814 31.7835 201.124 31.9817 200.353 31.9817C199.79 31.9817 199.324 31.8879 198.953 31.7004C198.582 31.5129 198.284 31.2871 198.058 31.0229C197.836 30.7544 197.664 30.5008 197.54 30.2622H197.444V35.4909H195.13ZM197.4 26.9C197.4 27.5349 197.489 28.091 197.668 28.5683C197.851 29.0456 198.113 29.4185 198.454 29.6869C198.799 29.9511 199.217 30.0832 199.707 30.0832C200.218 30.0832 200.647 29.9469 200.992 29.6741C201.337 29.3972 201.597 29.02 201.772 28.5427C201.951 28.0612 202.04 27.5136 202.04 26.9C202.04 26.2906 201.953 25.7494 201.778 25.2764C201.603 24.8034 201.343 24.4327 200.998 24.1642C200.653 23.8957 200.223 23.7615 199.707 23.7615C199.213 23.7615 198.793 23.8915 198.448 24.1514C198.103 24.4114 197.841 24.7757 197.662 25.2445C197.487 25.7132 197.4 26.265 197.4 26.9ZM206.38 35.4909V21.9909H208.656V23.6145H208.79C208.909 23.3758 209.078 23.1223 209.295 22.8538C209.512 22.5811 209.806 22.3489 210.177 22.1571C210.548 21.9611 211.021 21.8631 211.596 21.8631C212.355 21.8631 213.039 22.057 213.648 22.4447C214.262 22.8283 214.748 23.3972 215.105 24.1514C215.468 24.9014 215.649 25.8219 215.649 26.9128C215.649 27.9909 215.472 28.9071 215.118 29.6614C214.765 30.4156 214.283 30.9909 213.674 31.3872C213.064 31.7835 212.374 31.9817 211.603 31.9817C211.04 31.9817 210.574 31.8879 210.203 31.7004C209.832 31.5129 209.534 31.2871 209.308 31.0229C209.086 30.7544 208.914 30.5008 208.79 30.2622H208.694V35.4909H206.38ZM208.65 26.9C208.65 27.5349 208.739 28.091 208.918 28.5683C209.101 29.0456 209.363 29.4185 209.704 29.6869C210.049 29.9511 210.467 30.0832 210.957 30.0832C211.468 30.0832 211.897 29.9469 212.242 29.6741C212.587 29.3972 212.847 29.02 213.022 28.5427C213.201 28.0612 213.29 27.5136 213.29 26.9C213.29 26.2906 213.203 25.7494 213.028 25.2764C212.853 24.8034 212.593 24.4327 212.248 24.1642C211.903 23.8957 211.473 23.7615 210.957 23.7615C210.463 23.7615 210.043 23.8915 209.698 24.1514C209.353 24.4114 209.091 24.7757 208.912 25.2445C208.737 25.7132 208.65 26.265 208.65 26.9ZM233.895 25.2636C233.895 26.6741 233.631 27.8822 233.102 28.8879C232.578 29.8893 231.862 30.6564 230.955 31.1891C230.051 31.7217 229.026 31.9881 227.88 31.9881C226.734 31.9881 225.707 31.7217 224.799 31.1891C223.896 30.6521 223.18 29.8829 222.651 28.8815C222.127 27.8758 221.865 26.6699 221.865 25.2636C221.865 23.8531 222.127 22.6471 222.651 21.6457C223.18 20.64 223.896 19.8709 224.799 19.3382C225.707 18.8055 226.734 18.5392 227.88 18.5392C229.026 18.5392 230.051 18.8055 230.955 19.3382C231.862 19.8709 232.578 20.64 233.102 21.6457C233.631 22.6471 233.895 23.8531 233.895 25.2636ZM231.511 25.2636C231.511 24.2707 231.355 23.4334 231.044 22.7516C230.737 22.0655 230.311 21.5477 229.766 21.1983C229.22 20.8446 228.592 20.6677 227.88 20.6677C227.168 20.6677 226.54 20.8446 225.994 21.1983C225.449 21.5477 225.021 22.0655 224.71 22.7516C224.403 23.4334 224.249 24.2707 224.249 25.2636C224.249 26.2565 224.403 27.096 224.71 27.7821C225.021 28.4639 225.449 28.9817 225.994 29.3354C226.54 29.6848 227.168 29.8595 227.88 29.8595C228.592 29.8595 229.22 29.6848 229.766 29.3354C230.311 28.9817 230.737 28.4639 231.044 27.7821C231.355 27.096 231.511 26.2565 231.511 25.2636ZM238.349 26.0562V31.8091H236.035V21.9909H238.246V23.6592H238.361C238.587 23.1095 238.947 22.6727 239.442 22.3489C239.94 22.025 240.556 21.8631 241.289 21.8631C241.966 21.8631 242.557 22.0079 243.059 22.2977C243.567 22.5875 243.959 23.0072 244.236 23.557C244.517 24.1067 244.655 24.7736 244.651 25.5577V31.8091H242.337V25.9156C242.337 25.2594 242.167 24.7459 241.826 24.3751C241.489 24.0044 241.023 23.819 240.426 23.819C240.021 23.819 239.661 23.9085 239.346 24.0875C239.035 24.2622 238.79 24.5158 238.611 24.8481C238.436 25.1805 238.349 25.5832 238.349 26.0562Z" fill="black"/>
<g clip-path="url(#clip0_508_1907)">
<path d="M65.7685 41.6851L40.6597 65.7745C39.4839 64.9739 38.7858 63.6422 38.7981 62.2233V21.1469C38.7858 19.728 39.4839 18.3963 40.6597 17.5957L65.7685 41.6851Z" fill="#2196F3"/>
<path d="M74.5543 33.2708L65.7685 41.6852L40.6597 17.5958C40.7543 17.5227 40.8528 17.4547 40.9548 17.3922C42.2818 16.5908 43.9394 16.565 45.291 17.3243L74.5543 33.2708Z" fill="#4CAF50"/>
<path d="M85.2018 41.6851C85.2182 43.2868 84.3446 44.7663 82.9316 45.5304L74.5544 50.0994L65.7686 41.6851L74.5544 33.2708L82.9316 37.8398C84.3446 38.6038 85.2182 40.0833 85.2018 41.6851Z" fill="#FFC107"/>
<path d="M74.5543 50.0996L45.291 66.0461C43.9364 66.7937 42.2851 66.7679 40.9548 65.9783C40.8528 65.9157 40.7543 65.8478 40.6597 65.7747L65.7686 41.6853L74.5543 50.0996Z" fill="#F44336"/>
</g>
<defs>
<clipPath id="clip0_508_1907">
<rect width="50" height="49.8166" fill="white" transform="translate(37 16.7725)"/>
</clipPath>
</defs>
</svg>
